# xmcd CD database file
# Copyright (C) 1995-1998 Ti Kan
#
# Track frame offsets:
#	150
#	16473
#	31017
#	48480
#	58150
#	72697
#	89719
#	106886
#	121272
#	133641
#	146760
#	157104
#	164826
#	172549
#	183640
#	190386
#	202660
#	214055
#	227695
#	236316
#	244338
#	256328
#	266671
#	285782
#
# Disc length: 3945 seconds
#
# Revision: 1
# Processed by: cddbd v1.4PL0 Copyright (c) Steve Scherf et al.
# Submitted via: CDex 1.30
#
DISCID=5e0f6718
DTITLE=Suchy and Slitr - Praminek vlasu
DYEAR=2000
DGENRE=Blues
TTITLE0=Praminek vlasu
TTITLE1=Klementajn
TTITLE2=Babeta
TTITLE3=Kanonem takhle k veceru
TTITLE4=Pisen o rose
TTITLE5=Hluboka vraska
TTITLE6=Klokoci
TTITLE7=Maly blby psicek
TTITLE8=Blues o stabilite
TTITLE9=Tu krasu nelze popsat slovy
TTITLE10=Bud mi verna moje mila
TTITLE11=Blues pro tebe
TTITLE12=Metamorfozy
TTITLE13=Blues na cestu posledni
TTITLE14=Ja ziju dal
TTITLE15=Blues o zmokle slepici
TTITLE16=Dite skolou povinne
TTITLE17=Leta dozravani
TTITLE18=Nema nas rytmus
TTITLE19=Male kote
TTITLE20=Tolikrat jsem dobrou vuli mel
TTITLE21=Svitani
TTITLE22=Zla nedele
TTITLE23=V kasne
EXTD=\nYEAR: 2000  ID3G:   0
EXTT0=
EXTT1=
EXTT2=
EXTT3=
EXTT4=
EXTT5=
EXTT6=
EXTT7=
EXTT8=
EXTT9=
EXTT10=
EXTT11=
EXTT12=
EXTT13=
EXTT14=
EXTT15=
EXTT16=
EXTT17=
EXTT18=
EXTT19=
EXTT20=
EXTT21=
EXTT22=
EXTT23=
PLAYORDER=
